{"context": " More than 1 year has passed since last update.\n\n\u306f\u3058\u3081\u306b\n\u672c\u8a18\u4e8b\u306f\u30e1\u30fc\u30eb\u3067\u52d5\u753b\u3092\u9001\u308b\u6642\u306b\u4f7f\u3048\u308b\u30a8\u30f3\u30b3\u30fc\u30c9\u3067\u3059\u3002\n\n\u74b0\u5883\niPhone6S + \u7d14\u6b63\u30ab\u30e1\u30e9App\nffmpeg version 2.8.2 Copyright (c) 2000-2015 the FFmpeg developers built with gcc 4.8 (Ubuntu 4.8.4-2ubuntu1~14.04)\n\n\u76ee\u7684\n\u30a2\u30cb\u30e1\u30fc\u30b7\u30e7\u30f3\u78ba\u8a8d\u306e\u305f\u3081\u3060\u3063\u305f\u306e\u3067\n\u300c\u97f3\u7121\u3057 + \u4f4e\u89e3\u50cf\u5ea6\u300d\u3067\u30a8\u30f3\u30b3\u30fc\u30c9\u3057\u307e\u3059\u3002\n\n\u7d50\u679c\n\u5909\u63db\u524d: iPhone6S + \u7d14\u6b63\u30ab\u30e1\u30e9App \u3067\u64ae\u5f71\u3057\u305f3\u79d2\u52d5\u753b\u304c 7MB\n\u5909\u63db\u5f8c: 400kb!\n\n\u624b\u9806\n\u52d5\u753b\u60c5\u5831\u3092\u78ba\u8a8d\u5f8c\u3001Video\u306e\u307f\u3067\u51fa\u529b\u3057\u307e\u3059\u3002\n\n\u52d5\u753b\u60c5\u5831\u8868\u793a\n$ ffmpeg -i source.mp4\n\n...\nStream #0:0(und): Audio: aac (LC) (mp4a / 0x6134706D), 44100 Hz, mono, fltp, 1 kb/s (default)\n...\nStream #0:1(und): Video: h264 (High) (avc1 / 0x31637661), yuv420p(tv, bt709), 1920x1080, 14855 kb/s, 29.97 fps, 29.97 tbr, 600 tbn, 1200 tbc (default)\n...\n\n\n\u30a8\u30f3\u30b3\u30fc\u30c9\nVideo Stream\u304c #0:1 \u3060\u3063\u305f\u306e\u3067 -map 0:1 \u3092\u6307\u5b9a\u3057\u307e\u3059\u3002\n\u89e3\u50cf\u5ea6\u306f wiki\u3088\u308a\u300116:9\u3067\u5c0f\u3055\u3044\u3084\u3064\u3092\u9078\u3073\u307e\u3057\u305f\u3002\n$ ffmpeg -i source.mp4 -map 0:1 -s 854x480 output.mp4\n\n## \u306f\u3058\u3081\u306b\n\u672c\u8a18\u4e8b\u306f\u30e1\u30fc\u30eb\u3067\u52d5\u753b\u3092\u9001\u308b\u6642\u306b\u4f7f\u3048\u308b\u30a8\u30f3\u30b3\u30fc\u30c9\u3067\u3059\u3002\n\n## \u74b0\u5883\n`iPhone6S + \u7d14\u6b63\u30ab\u30e1\u30e9App`\n`ffmpeg version 2.8.2 Copyright (c) 2000-2015 the FFmpeg developers built with gcc 4.8 (Ubuntu 4.8.4-2ubuntu1~14.04)`\n\n## \u76ee\u7684\n\n\u30a2\u30cb\u30e1\u30fc\u30b7\u30e7\u30f3\u78ba\u8a8d\u306e\u305f\u3081\u3060\u3063\u305f\u306e\u3067\n\u300c\u97f3\u7121\u3057 + \u4f4e\u89e3\u50cf\u5ea6\u300d\u3067\u30a8\u30f3\u30b3\u30fc\u30c9\u3057\u307e\u3059\u3002\n\n## \u7d50\u679c\n\u5909\u63db\u524d: iPhone6S + \u7d14\u6b63\u30ab\u30e1\u30e9App \u3067\u64ae\u5f71\u3057\u305f__3\u79d2\u52d5\u753b__\u304c __7MB__\n\n\u5909\u63db\u5f8c: __400kb!__\n\n## \u624b\u9806\n\n\u52d5\u753b\u60c5\u5831\u3092\u78ba\u8a8d\u5f8c\u3001Video\u306e\u307f\u3067\u51fa\u529b\u3057\u307e\u3059\u3002\n\n### \u52d5\u753b\u60c5\u5831\u8868\u793a\n\n```\n$ ffmpeg -i source.mp4\n\n...\nStream #0:0(und): Audio: aac (LC) (mp4a / 0x6134706D), 44100 Hz, mono, fltp, 1 kb/s (default)\n...\nStream #0:1(und): Video: h264 (High) (avc1 / 0x31637661), yuv420p(tv, bt709), 1920x1080, 14855 kb/s, 29.97 fps, 29.97 tbr, 600 tbn, 1200 tbc (default)\n...\n```\n\n### \u30a8\u30f3\u30b3\u30fc\u30c9\nVideo Stream\u304c `#0:1` \u3060\u3063\u305f\u306e\u3067 `-map 0:1` \u3092\u6307\u5b9a\u3057\u307e\u3059\u3002\n\n\u89e3\u50cf\u5ea6\u306f [wiki](https://ja.wikipedia.org/wiki/%E7%94%BB%E9%9D%A2%E8%A7%A3%E5%83%8F%E5%BA%A6#/media/File:Vector_Video_Standards2.svg)\u3088\u308a\u300116:9\u3067\u5c0f\u3055\u3044\u3084\u3064\u3092\u9078\u3073\u307e\u3057\u305f\u3002\n\n```\n$ ffmpeg -i source.mp4 -map 0:1 -s 854x480 output.mp4\n```\n", "tags": ["ffmpeg"]}